<svg width="1240" height="386" viewBox="0 0 1240 386" fill="none" xmlns="http://www.w3.org/2000/svg">
<path fill-rule="evenodd" clip-rule="evenodd" d="M790.307 254.615C792.217 263.965 795.484 272.358 800.108 279.801C804.724 287.245 810.864 293.181 818.513 297.619C826.161 302.056 835.728 304.271 847.204 304.271C858.673 304.271 868.306 302.056 876.131 297.619C883.938 293.181 890.145 287.245 894.77 279.801C899.385 272.358 902.661 263.965 904.571 254.615C906.489 245.273 907.444 235.69 907.444 225.866C907.444 216.049 906.489 206.383 904.571 196.875C902.661 187.375 899.385 178.982 894.77 171.689C890.145 164.403 883.938 158.467 876.131 153.871C868.306 149.283 858.673 146.977 847.204 146.977C835.728 146.977 826.161 149.283 818.513 153.871C810.864 158.467 804.724 164.403 800.108 171.689C795.484 178.982 792.217 187.375 790.307 196.875C788.397 206.383 787.442 216.049 787.442 225.866C787.442 235.69 788.397 245.273 790.307 254.615ZM728.635 172.405C734.683 156.411 743.286 142.79 754.445 131.541C765.603 120.293 778.99 111.584 794.605 105.406C810.22 99.2282 827.753 96.1392 847.205 96.1392C866.64 96.1392 884.257 99.2282 900.031 105.406C915.814 111.584 929.267 120.293 940.434 131.541C951.584 142.79 960.187 156.411 966.252 172.405C972.301 188.407 975.333 206.225 975.333 225.866C975.333 245.507 972.301 263.249 966.252 279.085C960.187 294.93 951.584 308.468 940.434 319.716C929.267 330.964 915.814 339.598 900.031 345.61C884.257 351.621 866.64 354.643 847.205 354.643C827.753 354.643 810.22 351.621 794.605 345.61C778.99 339.598 765.603 330.964 754.445 319.716C743.286 308.468 734.683 294.93 728.635 279.085C722.57 263.249 719.546 245.507 719.546 225.866C719.546 206.225 722.57 188.407 728.635 172.405Z" fill="white"/>
<path fill-rule="evenodd" clip-rule="evenodd" d="M1141.28 297.619C1148.76 293.181 1154.82 287.403 1159.45 280.276C1164.06 273.14 1167.33 264.831 1169.25 255.323C1171.16 245.823 1172.11 236.165 1172.11 226.34C1172.11 216.524 1171.07 206.857 1169 197.349C1166.93 187.849 1163.51 179.373 1158.73 171.93C1153.94 164.487 1147.8 158.467 1140.32 153.871C1132.82 149.283 1123.66 146.977 1112.83 146.977C1101.67 146.977 1092.34 149.283 1084.86 153.871C1077.37 158.467 1071.3 164.403 1066.69 171.689C1062.07 178.982 1058.8 187.375 1056.88 196.875C1054.97 206.383 1054.02 216.208 1054.02 226.34C1054.02 236.165 1055.05 245.823 1057.13 255.323C1059.2 264.831 1062.55 273.14 1067.16 280.276C1071.78 287.403 1077.93 293.181 1085.58 297.619C1093.22 302.056 1102.46 304.271 1113.3 304.271C1124.45 304.271 1133.78 302.056 1141.28 297.619ZM1053.06 102.792V134.156H1054.02C1062.3 120.851 1072.83 111.184 1085.58 105.165C1098.32 99.1532 1112.35 96.1392 1127.65 96.1392C1147.09 96.1392 1163.82 99.786 1177.85 107.063C1191.87 114.356 1203.5 124.015 1212.75 136.054C1221.99 148.093 1228.84 162.114 1233.31 178.108C1237.77 194.111 1240 210.821 1240 228.239C1240 244.716 1237.77 260.552 1233.31 275.755C1228.84 290.967 1222.07 304.438 1212.99 316.153C1203.9 327.876 1192.59 337.217 1179.05 344.186C1165.49 351.147 1149.64 354.643 1131.47 354.643C1116.17 354.643 1102.07 351.546 1089.16 345.377C1076.25 339.199 1065.65 330.09 1057.36 318.051H1056.41V385.499H988.519V102.792H1053.06Z" fill="white"/>
<path fill-rule="evenodd" clip-rule="evenodd" d="M8.7203 348.466H76.6086V102.792H8.7203V348.466Z" fill="white"/>
<path fill-rule="evenodd" clip-rule="evenodd" d="M162.651 287.403C165.683 292.624 169.587 296.903 174.37 300.234C179.145 303.556 184.649 306.012 190.865 307.594C197.081 309.184 203.531 309.975 210.225 309.975C215.008 309.975 220.026 309.426 225.287 308.31C230.548 307.203 235.322 305.462 239.628 303.081C243.934 300.708 247.52 297.545 250.385 293.581C253.258 289.618 254.69 284.631 254.69 278.611C254.69 268.479 247.913 260.869 234.368 255.807C220.822 250.736 201.931 245.665 177.713 240.595C167.828 238.38 158.186 235.774 148.787 232.752C139.379 229.746 131.019 225.791 123.689 220.871C116.35 215.967 110.461 209.789 105.996 202.346C101.531 194.902 99.3029 185.794 99.3029 175.02C99.3029 159.184 102.411 146.195 108.627 136.054C114.843 125.922 123.044 117.92 133.247 112.059C143.45 106.197 154.919 102.076 167.677 99.7032C180.419 97.322 193.495 96.1397 206.882 96.1397C220.269 96.1397 233.245 97.4052 245.844 99.9363C258.435 102.476 269.669 106.755 279.554 112.767C289.43 118.786 297.64 126.788 304.174 136.762C310.7 146.745 314.612 159.334 315.885 174.545H251.34C250.385 161.557 245.442 152.765 236.52 148.169C227.59 143.581 217.077 141.283 204.964 141.283C201.144 141.283 196.997 141.516 192.532 141.991C188.067 142.465 184.004 143.498 180.343 145.08C176.674 146.67 173.566 148.968 171.02 151.974C168.465 154.988 167.2 159.026 167.2 164.088C167.2 170.107 169.42 175.02 173.893 178.816C178.35 182.621 184.172 185.71 191.343 188.083C198.513 190.464 206.715 192.596 215.963 194.503C225.203 196.401 234.61 198.466 244.169 200.68C254.045 202.895 263.687 205.593 273.095 208.757C282.494 211.929 290.863 216.125 298.193 221.354C305.523 226.582 311.42 233.077 315.885 240.836C320.35 248.596 322.579 258.179 322.579 269.578C322.579 285.738 319.312 299.285 312.777 310.208C306.243 321.14 297.715 329.932 287.202 336.585C276.68 343.237 264.651 347.917 251.105 350.597C237.551 353.287 223.77 354.644 209.747 354.644C195.405 354.644 181.374 353.212 167.677 350.364C153.964 347.509 141.775 342.763 131.103 336.11C120.413 329.458 111.651 320.666 104.798 309.734C97.9458 298.802 94.2013 285.106 93.5646 268.628H158.11C158.11 275.922 159.618 282.175 162.651 287.403Z" fill="white"/>
<path fill-rule="evenodd" clip-rule="evenodd" d="M403.811 254.616C405.721 263.966 408.988 272.358 413.612 279.802C418.228 287.245 424.368 293.182 432.016 297.619C439.665 302.057 449.232 304.272 460.7 304.272C472.176 304.272 481.819 302.057 489.626 297.619C497.434 293.182 503.649 287.245 508.274 279.802C512.889 272.358 516.165 263.966 518.075 254.616C519.985 245.274 520.948 235.691 520.948 225.866C520.948 216.05 519.985 206.383 518.075 196.875C516.165 187.375 512.889 178.983 508.274 171.689C503.649 164.404 497.434 158.468 489.626 153.872C481.819 149.284 472.176 146.978 460.7 146.978C449.232 146.978 439.665 149.284 432.016 153.872C424.368 158.468 418.228 164.404 413.612 171.689C408.988 178.983 405.721 187.375 403.811 196.875C401.892 206.383 400.937 216.05 400.937 225.866C400.937 235.691 401.892 245.274 403.811 254.616ZM342.13 172.405C348.187 156.411 356.79 142.79 367.948 131.542C379.107 120.293 392.493 111.584 408.108 105.406C423.723 99.2285 441.257 96.1395 460.7 96.1395C480.143 96.1395 497.76 99.2285 513.534 105.406C529.309 111.584 542.771 120.293 553.937 131.542C565.087 142.79 573.691 156.411 579.747 172.405C585.804 188.408 588.837 206.225 588.837 225.866C588.837 245.507 585.804 263.25 579.747 279.086C573.691 294.93 565.087 308.468 553.937 319.716C542.771 330.965 529.309 339.599 513.534 345.61C497.76 351.621 480.143 354.644 460.7 354.644C441.257 354.644 423.723 351.621 408.108 345.61C392.493 339.599 379.107 330.965 367.948 319.716C356.79 308.468 348.187 294.93 342.13 279.086C336.073 263.25 333.049 245.507 333.049 225.866C333.049 206.225 336.073 188.408 342.13 172.405Z" fill="white"/>
<path fill-rule="evenodd" clip-rule="evenodd" d="M85.3295 42.4041C85.3295 65.825 66.2296 84.8082 42.6648 84.8082C19.0999 84.8082 0 65.825 0 42.4041C0 18.9832 19.0999 0 42.6648 0C66.2296 0 85.3295 18.9832 85.3295 42.4041Z" fill="white"/>
<path fill-rule="evenodd" clip-rule="evenodd" d="M722.403 147.935V102.792H672.684V56.6829H604.796V102.792H541.138V102.85C551.819 108.379 561.277 115.239 569.47 123.49C580.628 134.739 589.231 148.368 595.288 164.363C601.32 180.315 604.352 198.083 604.369 217.657H604.796V292.865C604.796 305.221 606.865 315.204 611.004 322.805C615.15 330.407 620.813 336.268 627.984 340.382C635.155 344.503 643.44 347.275 652.847 348.699C662.238 350.123 672.207 350.839 682.729 350.839C689.422 350.839 696.266 350.672 703.286 350.364C710.289 350.048 716.664 349.415 722.403 348.466V296.196C719.219 296.828 715.868 297.303 712.367 297.619C708.857 297.936 705.196 298.094 701.376 298.094C689.899 298.094 682.243 296.196 678.423 292.391C674.594 288.586 672.684 280.984 672.684 269.578V147.935H722.403Z" fill="white"/>
</svg>
