<svg width="1346" height="56" viewBox="0 0 1346 56" fill="none" xmlns="http://www.w3.org/2000/svg">
<g id="cloud-day"><path fill-rule="evenodd" clip-rule="evenodd" d="M35.833 20.167L40 21.858L38.331 26L39.998 30.142L35.831 31.833L35.421 32.859C34.897 31.683 34.037 30.699 32.945 30.021C34.184 29.111 34.998 27.655 34.998 26C34.998 23.239 32.759 21 29.998 21C27.577 21 25.558 22.722 25.098 25.008C25.0823 25.0075 25.067 25.0058 25.0517 25.004C25.034 25.002 25.0163 25 24.998 25C23.78 25 22.631 25.331 21.621 25.892L19.998 21.858L24.165 20.167L25.832 16L29.999 17.667L34.166 16L35.833 20.167ZM25 27C27.433 27 29.455 28.739 29.903 31.041C32.197 31.248 34 33.153 34 35.5C34 37.985 31.985 40 29.5 40H20.5C18.015 40 16 37.985 16 35.5C16 33.153 17.804 31.248 20.097 31.041C20.545 28.739 22.567 27 25 27Z" fill="white"/></g>
<g id="cloud-mixed"><path fill-rule="evenodd" clip-rule="evenodd" d="M81.5006 25C81.5006 27.761 79.2616 30 76.5006 30H64.5006C61.7396 30 59.5006 27.761 59.5006 25C59.5006 22.239 61.7396 20 64.5006 20H65.2126C65.8666 17.693 67.9836 16 70.5006 16C73.0176 16 75.1346 17.693 75.7886 20H76.5006C79.2616 20 81.5006 22.239 81.5006 25ZM64.5416 33.634C65.0076 33.357 65.6016 33.521 65.8706 34C66.1386 34.479 65.9796 35.09 65.5126 35.366L64.4446 36L65.5126 36.634C65.9776 36.91 66.1366 37.521 65.8686 38C65.6886 38.32 65.3616 38.5 65.0256 38.5C64.8616 38.5 64.6936 38.457 64.5406 38.366L63.4726 37.732V39C63.4726 39.553 63.0376 40 62.4996 40C61.9616 40 61.5266 39.553 61.5266 39V37.732L60.4586 38.366C60.3056 38.457 60.1386 38.5 59.9736 38.5C59.6376 38.5 59.3106 38.321 59.1306 38C58.8616 37.522 59.0216 36.91 59.4866 36.634L60.5546 36L59.4866 35.366C59.0216 35.09 58.8626 34.479 59.1306 34C59.3996 33.523 59.9926 33.358 60.4596 33.634L61.5276 34.268V33C61.5276 32.447 61.9626 32 62.5006 32C63.0386 32 63.4736 32.447 63.4736 33V34.268L64.5416 33.634ZM81.5136 36.634L80.4456 36L81.5136 35.366C81.9786 35.09 82.1386 34.478 81.8696 34C81.6006 33.521 81.0066 33.357 80.5406 33.634L79.4726 34.268V33C79.4726 32.447 79.0376 32 78.4996 32C77.9616 32 77.5266 32.447 77.5266 33V34.268L76.4586 33.634C75.9926 33.358 75.3976 33.523 75.1296 34C74.8616 34.479 75.0206 35.09 75.4856 35.366L76.5536 36L75.4856 36.634C75.0206 36.91 74.8606 37.522 75.1296 38C75.3096 38.321 75.6366 38.5 75.9726 38.5C76.1376 38.5 76.3046 38.457 76.4576 38.366L77.5256 37.732V39C77.5256 39.553 77.9606 40 78.4986 40C79.0366 40 79.4716 39.553 79.4716 39V37.732L80.5396 38.366C80.6926 38.457 80.8606 38.5 81.0246 38.5C81.3606 38.5 81.6876 38.32 81.8676 38C82.1386 37.521 81.9796 36.91 81.5136 36.634ZM70.5006 40C69.0286 40 68.0006 38.801 68.0006 37.085C68.0006 35.368 70.5006 32 70.5006 32C70.5006 32 73.0006 35.368 73.0006 37.085C73.0006 38.801 71.9726 40 70.5006 40Z" fill="white"/></g>
<g id="fog"><path fill-rule="evenodd" clip-rule="evenodd" d="M125 27C125 28.131 124.611 29.162 123.978 30H104.023C103.39 29.162 103 28.131 103 27C103 24.239 105.239 22 108 22H108.712C109.366 19.693 111.483 18 114 18C116.517 18 118.634 19.693 119.288 22H120C122.761 22 125 24.239 125 27ZM125 33C125 32.45 124.55 32 124 32H104C103.45 32 103 32.45 103 33C103 33.55 103.45 34 104 34H124C124.55 34 125 33.55 125 33ZM125 37C125 36.45 124.55 36 124 36H104C103.45 36 103 36.45 103 37C103 37.55 103.45 38 104 38H124C124.55 38 125 37.55 125 37Z" fill="white"/></g>
<g id="storm"><path fill-rule="evenodd" clip-rule="evenodd" d="M149.083 22.042C149.543 19.185 152.013 17 155 17C157.851 17 160.21 18.999 160.82 21.664L155.336 29.891L154.596 31H149.5C147.015 31 145 28.985 145 26.5C145 24.157 146.796 22.255 149.083 22.042ZM161.667 24H169L164.692 30H169L158.889 39L161 31H157L161.667 24Z" fill="white"/></g>
<g id="moon-waxing-crescent"><path fill-rule="evenodd" clip-rule="evenodd" d="M189 28C189 21.95 193.95 17 200 17C206.05 17 211 21.95 211 28C211 34.05 206.05 39 200 39C193.95 39 189 34.05 189 28ZM192.041 27.183C192.017 27.453 192 27.724 192 28C192 28.276 192.017 28.547 192.041 28.817C192.442 32.756 195.716 35.85 199.727 35.986C197.454 34.065 195.999 31.211 195.999 28C195.999 24.789 197.454 21.935 199.727 20.014C195.716 20.15 192.442 23.244 192.041 27.183Z" fill="white"/></g>
<g id="moon-first-quarter"><path fill-rule="evenodd" clip-rule="evenodd" d="M232 28C232 21.95 236.95 17 243 17C249.05 17 254 21.95 254 28C254 34.05 249.05 39 243 39C236.95 39 232 34.05 232 28ZM243 20C238.589 20 235 23.589 235 28C235 32.411 238.589 36 243 36V20Z" fill="white"/></g>
<g id="sun"><path fill-rule="evenodd" clip-rule="evenodd" d="M293 21L298 23.029L296 28L298 32.971L293 35L291 40L286 38L281 40L279 35L274 32.971L276 28L274 23.029L279 21L281 16L286 18L291 16L293 21ZM280 28C280 31.314 282.686 34 286 34C289.314 34 292 31.314 292 28C292 24.686 289.314 22 286 22C282.686 22 280 24.686 280 28Z" fill="white"/></g>
<g id="moon-waxing-gibbous"><path fill-rule="evenodd" clip-rule="evenodd" d="M318 28C318 21.95 322.95 17 329 17C335.05 17 340 21.95 340 28C340 34.05 335.05 39 329 39C322.95 39 318 34.05 318 28ZM328.989 20C324.583 20.006 321 23.593 321 28C321 32.407 324.583 35.994 328.989 36C331.422 34.176 333 31.275 333 28C333 24.725 331.422 21.824 328.989 20Z" fill="white"/></g>
<g id="moon-full"><path fill-rule="evenodd" clip-rule="evenodd" d="M361 28C361 21.95 365.95 17 372 17C378.05 17 383 21.95 383 28C383 34.05 378.05 39 372 39C365.95 39 361 34.05 361 28ZM380 28C380 23.589 376.411 20 372 20C367.589 20 364 23.589 364 28C364 32.411 367.589 36 372 36C376.411 36 380 32.411 380 28Z" fill="white"/></g>
<g id="hale"><path fill-rule="evenodd" clip-rule="evenodd" d="M420.288 20H421C423.761 20 426 22.239 426 25C426 27.761 423.761 30 421 30H409C406.239 30 404 27.761 404 25C404 22.239 406.239 20 409 20H409.712C410.366 17.693 412.483 16 415 16C417.517 16 419.634 17.693 420.288 20ZM407 33.5C407 32.672 407.672 32 408.5 32C409.328 32 410 32.672 410 33.5C410 34.328 409.328 35 408.5 35C407.672 35 407 34.328 407 33.5ZM411.5 37C410.672 37 410 37.672 410 38.5C410 39.328 410.672 40 411.5 40C412.328 40 413 39.328 413 38.5C413 37.672 412.328 37 411.5 37ZM417 38.5C417 37.672 417.672 37 418.5 37C419.328 37 420 37.672 420 38.5C420 39.328 419.328 40 418.5 40C417.672 40 417 39.328 417 38.5ZM415 32C414.172 32 413.5 32.672 413.5 33.5C413.5 34.328 414.172 35 415 35C415.828 35 416.5 34.328 416.5 33.5C416.5 32.672 415.828 32 415 32ZM420 33.5C420 32.672 420.672 32 421.5 32C422.328 32 423 32.672 423 33.5C423 34.328 422.328 35 421.5 35C420.672 35 420 34.328 420 33.5Z" fill="white"/></g>
<g id="sunrise"><path fill-rule="evenodd" clip-rule="evenodd" d="M456 23H453.414C452.523 23 452.077 21.923 452.707 21.293L458 16L463.293 21.293C463.923 21.923 463.477 23 462.586 23H460V25C460 26.104 459.104 27 458 27C456.896 27 456 26.104 456 25V23ZM463 28L465 33L470 35.029L468 40H464C464 36.686 461.314 34 458 34C454.686 34 452 36.686 452 40H448L446 35.029L451 33L453 28L458 30L463 28Z" fill="white"/></g>
<g id="partly-cloudy"><path d="M507.991 25.179C507.992 25.119 508 25.061 508 25C508 21.134 504.866 18 501 18C497.134 18 494 21.134 494 25C494 25.06 494.008 25.119 494.009 25.179C491.139 25.854 489 28.424 489 31.5C489 35.09 491.91 38 495.5 38H506.5C510.09 38 513 35.09 513 31.5C513 28.424 510.861 25.854 507.991 25.179Z" fill="white"/></g>
<g id="moon-third-quarter"><path fill-rule="evenodd" clip-rule="evenodd" d="M555 28C555 34.05 550.05 39 544 39C537.95 39 533 34.05 533 28C533 21.95 537.95 17 544 17C550.05 17 555 21.95 555 28ZM544 36C548.411 36 552 32.411 552 28C552 23.589 548.411 20 544 20V36Z" fill="white"/></g>
<g id="hurricane"><path fill-rule="evenodd" clip-rule="evenodd" d="M590.386 16H597.5C598.329 16 599 16.672 599 17.5C599 18.328 598.329 19 597.5 19H592.388C595.447 20.835 597.5 24.174 597.5 28C597.5 29.165 597.303 30.281 596.953 31.328C595.407 36.694 590.524 40 583.614 40H576.5C575.671 40 575 39.328 575 38.5C575 37.672 575.671 37 576.5 37H581.612C578.553 35.165 576.5 31.826 576.5 28C576.5 26.835 576.697 25.719 577.047 24.672C578.593 19.306 583.476 16 590.386 16ZM583 28C583 30.206 584.794 32 587 32C589.206 32 591 30.206 591 28C591 25.794 589.206 24 587 24C584.794 24 583 25.794 583 28Z" fill="white"/></g>
<g id="cloud-night"><path fill-rule="evenodd" clip-rule="evenodd" d="M634.02 22C634.02 26.05 637.303 29.333 641.353 29.333C641.571 29.333 641.786 29.319 642 29.3C640.723 30.739 638.94 31.718 636.926 31.947C636.119 30.721 634.917 29.775 633.465 29.322C632.54 27.088 630.503 25.475 628.103 25.091C628.054 24.733 628.02 24.371 628.02 24C628.02 19.582 631.602 16 636.02 16C636.369 16 636.71 16.03 637.047 16.073C635.215 17.406 634.02 19.561 634.02 22ZM627 27C629.433 27 631.455 28.739 631.903 31.041C634.197 31.248 636 33.153 636 35.5C636 37.985 633.985 40 631.5 40H622.5C620.015 40 618 37.985 618 35.5C618 33.153 619.804 31.248 622.097 31.041C622.545 28.739 624.567 27 627 27Z" fill="white"/></g>
<g id="sunset"><path fill-rule="evenodd" clip-rule="evenodd" d="M678.293 21.707L673 27L667.707 21.707C667.077 21.077 667.523 20 668.414 20H671V18C671 16.896 671.896 16 673 16C674.105 16 675 16.896 675 18V20H677.586C678.477 20 678.923 21.077 678.293 21.707ZM678 28L680 33L685 35.029L683 40H679C679 36.686 676.314 34 673 34C669.686 34 667 36.686 667 40H663L661 35.029L666 33L668 28L673 30L678 28Z" fill="white"/></g>
<g id="rain"><path fill-rule="evenodd" clip-rule="evenodd" d="M707.5 18C707.5 18 710 21.368 710 23.085C710 24.801 708.972 26 707.5 26C706.028 26 705 24.801 705 23.085C705 21.368 707.5 18 707.5 18ZM716 18C716 18 713.5 21.368 713.5 23.085C713.5 24.801 714.528 26 716 26C717.472 26 718.5 24.801 718.5 23.085C718.5 21.368 716 18 716 18ZM724.5 18C724.5 18 722 21.368 722 23.085C722 24.801 723.028 26 724.5 26C725.972 26 727 24.801 727 23.085C727 21.368 724.5 18 724.5 18ZM707 34.356C707 36.501 708.439 38 710.5 38C712.561 38 714 36.501 714 34.356C714 32.21 710.5 28 710.5 28C710.5 28 707 32.21 707 34.356ZM721.5 38C719.439 38 718 36.501 718 34.356C718 32.21 721.5 28 721.5 28C721.5 28 725 32.21 725 34.356C725 36.501 723.561 38 721.5 38Z" fill="white"/></g>
<g id="moon-new"><path d="M759 17C752.959 17 748 21.96 748 27.999C748 34.041 752.959 39 759 39C765.044 39 770 34.042 770 27.999C770 21.96 765.044 17 759 17Z" fill="white"/></g>
<g id="lightning"><path d="M811 25H804.818L808 18H798L793 29H798.769L796 38L811 25Z" fill="white"/></g>
<g id="cloud-rain"><path fill-rule="evenodd" clip-rule="evenodd" d="M856 25C856 27.761 853.761 30 851 30H839C836.239 30 834 27.761 834 25C834 22.239 836.239 20 839 20H839.712C840.366 17.693 842.483 16 845 16C847.517 16 849.634 17.693 850.288 20H851C853.761 20 856 22.239 856 25ZM837 40C835.528 40 834.5 38.801 834.5 37.085C834.5 35.368 837 32 837 32C837 32 839.5 35.368 839.5 37.085C839.5 38.801 838.472 40 837 40ZM842.5 37.085C842.5 38.801 843.528 40 845 40C846.472 40 847.5 38.801 847.5 37.085C847.5 35.368 845 32 845 32C845 32 842.5 35.368 842.5 37.085ZM853 40C851.528 40 850.5 38.801 850.5 37.085C850.5 35.368 853 32 853 32C853 32 855.5 35.368 855.5 37.085C855.5 38.801 854.472 40 853 40Z" fill="white"/></g>
<g id="snow"><path fill-rule="evenodd" clip-rule="evenodd" d="M882.475 22.732L883.543 23.366C883.696 23.457 883.864 23.5 884.028 23.5C884.364 23.5 884.691 23.32 884.871 23C885.139 22.521 884.98 21.91 884.515 21.634L883.447 21L884.515 20.366C884.98 20.09 885.14 19.478 884.871 19C884.602 18.521 884.008 18.356 883.542 18.634L882.474 19.268V18C882.474 17.447 882.039 17 881.501 17C880.963 17 880.528 17.447 880.528 18V19.268L879.46 18.634C878.993 18.357 878.4 18.523 878.131 19C877.863 19.479 878.022 20.09 878.487 20.366L879.555 21L878.487 21.634C878.022 21.91 877.862 22.522 878.131 23C878.311 23.321 878.638 23.5 878.974 23.5C879.139 23.5 879.306 23.457 879.459 23.366L880.527 22.732V24C880.527 24.553 880.962 25 881.5 25C882.038 25 882.475 24.553 882.475 24V22.732ZM893.295 29.25C892.869 28.533 891.926 28.286 891.186 28.701L889.045 29.902V27.5C889.045 26.672 888.354 26 887.501 26C886.648 26 885.957 26.672 885.957 27.5V29.902L883.816 28.701C883.077 28.286 882.134 28.533 881.707 29.25C881.28 29.968 881.534 30.885 882.272 31.299L884.413 32.5L882.272 33.701C881.534 34.115 881.281 35.032 881.707 35.75C881.993 36.231 882.512 36.5 883.045 36.5C883.307 36.5 883.572 36.436 883.815 36.299L885.956 35.098V37.5C885.956 38.328 886.647 39 887.5 39C888.353 39 889.044 38.328 889.044 37.5V35.098L891.185 36.299C891.428 36.436 891.694 36.5 891.955 36.5C892.489 36.5 893.007 36.231 893.293 35.75C893.72 35.032 893.466 34.115 892.728 33.701L890.587 32.5L892.728 31.299C893.468 30.885 893.721 29.968 893.295 29.25ZM895.447 21L896.515 21.634C896.981 21.91 897.14 22.521 896.869 23C896.689 23.32 896.362 23.5 896.026 23.5C895.862 23.5 895.694 23.457 895.541 23.366L894.473 22.732V24C894.473 24.553 894.038 25 893.5 25C892.962 25 892.527 24.553 892.527 24V22.732L891.459 23.366C891.306 23.457 891.139 23.5 890.974 23.5C890.638 23.5 890.311 23.321 890.131 23C889.862 22.522 890.022 21.91 890.487 21.634L891.555 21L890.487 20.366C890.022 20.09 889.863 19.479 890.131 19C890.4 18.523 890.993 18.357 891.46 18.634L892.528 19.268V18C892.528 17.447 892.963 17 893.501 17C894.039 17 894.474 17.447 894.474 18V19.268L895.542 18.634C896.008 18.356 896.602 18.521 896.871 19C897.14 19.478 896.98 20.09 896.515 20.366L895.447 21Z" fill="white"/></g>
<g id="tornado"><path fill-rule="evenodd" clip-rule="evenodd" d="M940.583 17.528C939.927 18.236 939.393 19.062 939.101 19.982L939.099 19.988C939.098 19.992 939.097 19.996 939.095 20H919.562C919.2 18.71 919 17.37 919 16H942L940.583 17.528ZM938 40V39C938 37.099 937.185 35.355 935.821 34H942.711C942.386 35.077 941.79 36.104 940.921 36.994L938 40ZM938.775 22H920.268C920.898 23.437 921.752 24.781 922.797 26H940.021C939.181 24.785 938.768 23.397 938.775 22ZM924.825 28H941.679C942.547 29.218 942.991 30.607 943 32H932.559L930.358 31.188C928.273 30.419 926.412 29.328 924.825 28Z" fill="white"/></g>
<g id="moon-waning-crescent"><path fill-rule="evenodd" clip-rule="evenodd" d="M985 28C985 34.05 980.05 39 974 39C967.95 39 963 34.05 963 28C963 21.95 967.95 17 974 17C980.05 17 985 21.95 985 28ZM981.959 28.817C981.983 28.547 982 28.276 982 28C982 27.724 981.983 27.453 981.959 27.183C981.558 23.244 978.284 20.15 974.273 20.014C976.546 21.935 978.001 24.789 978.001 28C978.001 31.211 976.546 34.065 974.273 35.986C978.284 35.85 981.558 32.756 981.959 28.817Z" fill="white"/></g>
<g id="mixed-precipitation"><path fill-rule="evenodd" clip-rule="evenodd" d="M1013 22.085C1013 20.368 1010.5 17 1010.5 17C1010.5 17 1008 20.368 1008 22.085C1008 23.801 1009.03 25 1010.5 25C1011.97 25 1013 23.801 1013 22.085ZM1023.5 17C1023.5 17 1021 20.368 1021 22.085C1021 23.801 1022.03 25 1023.5 25C1024.97 25 1026 23.801 1026 22.085C1026 20.368 1023.5 17 1023.5 17ZM1020.68 27.701C1021.42 27.286 1022.37 27.533 1022.79 28.25C1023.22 28.968 1022.97 29.885 1022.23 30.299L1020.09 31.5L1022.23 32.701C1022.96 33.115 1023.22 34.032 1022.79 34.75C1022.51 35.231 1021.99 35.5 1021.45 35.5C1021.19 35.5 1020.93 35.436 1020.68 35.299L1018.54 34.098V36.5C1018.54 37.328 1017.85 38 1017 38C1016.15 38 1015.45 37.328 1015.45 36.5V34.098L1013.31 35.299C1013.07 35.436 1012.81 35.5 1012.54 35.5C1012.01 35.5 1011.49 35.231 1011.21 34.75C1010.78 34.032 1011.03 33.115 1011.77 32.701L1013.91 31.5L1011.77 30.299C1011.03 29.885 1010.78 28.968 1011.21 28.25C1011.63 27.533 1012.58 27.286 1013.31 27.701L1015.46 28.902V26.5C1015.46 25.672 1016.15 25 1017 25C1017.85 25 1018.54 25.672 1018.54 26.5V28.902L1020.68 27.701Z" fill="white"/></g>
<g id="cloud-snow"><path fill-rule="evenodd" clip-rule="evenodd" d="M1065.29 20H1066C1068.76 20 1071 22.239 1071 25C1071 27.761 1068.76 30 1066 30H1054C1051.24 30 1049 27.761 1049 25C1049 22.239 1051.24 20 1054 20H1054.71C1055.37 17.693 1057.48 16 1060 16C1062.52 16 1064.63 17.693 1065.29 20ZM1058.46 34C1058.19 33.521 1057.58 33.357 1057.1 33.634L1056 34.268V33C1056 32.447 1055.55 32 1055 32C1054.45 32 1054 32.447 1054 33V34.268L1052.9 33.634C1052.42 33.358 1051.81 33.523 1051.54 34C1051.26 34.479 1051.42 35.09 1051.9 35.366L1053 36L1051.9 36.634C1051.42 36.91 1051.26 37.522 1051.54 38C1051.72 38.321 1052.06 38.5 1052.4 38.5C1052.57 38.5 1052.74 38.457 1052.9 38.366L1054 37.732V39C1054 39.553 1054.45 40 1055 40C1055.55 40 1056 39.553 1056 39V37.732L1057.1 38.366C1057.26 38.457 1057.43 38.5 1057.6 38.5C1057.94 38.5 1058.28 38.32 1058.46 38C1058.74 37.521 1058.58 36.91 1058.1 36.634L1057 36L1058.1 35.366C1058.58 35.09 1058.74 34.479 1058.46 34ZM1068.46 34C1068.19 33.521 1067.58 33.357 1067.1 33.634L1066 34.268V33C1066 32.447 1065.55 32 1065 32C1064.45 32 1064 32.447 1064 33V34.268L1062.9 33.634C1062.42 33.358 1061.81 33.523 1061.54 34C1061.26 34.479 1061.42 35.09 1061.9 35.366L1063 36L1061.9 36.634C1061.42 36.91 1061.26 37.522 1061.54 38C1061.72 38.321 1062.06 38.5 1062.4 38.5C1062.57 38.5 1062.74 38.457 1062.9 38.366L1064 37.732V39C1064 39.553 1064.45 40 1065 40C1065.55 40 1066 39.553 1066 39V37.732L1067.1 38.366C1067.26 38.457 1067.43 38.5 1067.6 38.5C1067.94 38.5 1068.28 38.32 1068.46 38C1068.74 37.521 1068.58 36.91 1068.1 36.634L1067 36L1068.1 35.366C1068.58 35.09 1068.74 34.479 1068.46 34Z" fill="white"/></g>
<g id="wind"><path fill-rule="evenodd" clip-rule="evenodd" d="M1092 25H1101C1103.21 25 1105 23.209 1105 21C1105 18.791 1103.21 17 1101 17C1098.79 17 1097 18.791 1097 21C1097 21.732 1097.21 22.41 1097.55 23H1092C1091.45 23 1091 23.45 1091 24C1091 24.55 1091.45 25 1092 25ZM1109 31H1092C1091.45 31 1091 31.45 1091 32C1091 32.55 1091.45 33 1092 33H1105.56C1105.21 33.59 1105 34.268 1105 35C1105 37.209 1106.79 39 1109 39C1111.21 39 1113 37.209 1113 35C1113 32.791 1111.21 31 1109 31ZM1107 25C1107 22.791 1108.79 21 1111 21C1113.21 21 1115 22.791 1115 25C1115 27.209 1113.21 29 1111 29H1092C1091.45 29 1091 28.55 1091 28C1091 27.45 1091.45 27 1092 27H1107.56C1107.21 26.41 1107 25.732 1107 25Z" fill="white"/></g>
<g id="moon-waning-gibbous"><path fill-rule="evenodd" clip-rule="evenodd" d="M1157 28C1157 34.05 1152.05 39 1146 39C1139.95 39 1135 34.05 1135 28C1135 21.95 1139.95 17 1146 17C1152.05 17 1157 21.95 1157 28ZM1146.01 36C1150.42 35.994 1154 32.407 1154 28C1154 23.593 1150.42 20.006 1146.01 20C1143.58 21.824 1142 24.725 1142 28C1142 31.275 1143.58 34.176 1146.01 36Z" fill="white"/></g>
<g id="cloudy"><path fill-rule="evenodd" clip-rule="evenodd" d="M1194.84 25.618C1193.97 25.227 1193.01 25 1192 25C1189.26 25 1186.84 26.612 1185.7 29H1181.5C1179.02 29 1177 26.985 1177 24.5C1177 22.153 1178.8 20.248 1181.1 20.041C1181.55 17.739 1183.57 16 1186 16C1188.43 16 1190.45 17.739 1190.9 20.041C1193.2 20.248 1195 22.153 1195 24.5C1195 24.888 1194.94 25.258 1194.84 25.618ZM1192 27C1194.43 27 1196.45 28.739 1196.9 31.041C1199.2 31.248 1201 33.153 1201 35.5C1201 37.985 1198.99 40 1196.5 40H1187.5C1185.02 40 1183 37.985 1183 35.5C1183 33.153 1184.8 31.248 1187.1 31.041C1187.55 28.739 1189.57 27 1192 27Z" fill="white"/></g>
<g id="plus"><path d="M1234 19.999C1234 18.8945 1233.1 17.999 1232 17.999C1230.89 17.999 1230 18.8945 1230 19.999L1230 25.999H1224C1222.89 25.999 1222 26.8945 1222 27.999C1222 29.1036 1222.89 29.999 1224 29.999H1230L1230 35.999C1230 37.1036 1230.89 37.999 1232 37.999C1233.1 37.999 1234 37.1036 1234 35.999V29.999H1240C1241.1 29.999 1242 29.1036 1242 27.999C1242 26.8945 1241.1 25.999 1240 25.999H1234V19.999Z" fill="white"/></g>
<g id="snowflake"><path d="M1284 30.768L1279 28L1284 25.232C1284.96 24.679 1285.28 23.457 1284.73 22.5C1284.18 21.544 1282.96 21.216 1282 21.768L1277 24.536V19C1277 17.896 1276.1 17 1275 17C1273.9 17 1273 17.896 1273 19V24.536L1268 21.768C1267.04 21.216 1265.82 21.544 1265.27 22.5C1264.72 23.457 1265.04 24.68 1266 25.232L1271 28L1266 30.768C1265.04 31.321 1264.72 32.543 1265.27 33.5C1265.64 34.142 1266.31 34.5 1267 34.5C1267.34 34.5 1267.69 34.414 1268 34.232L1273 31.464V37C1273 38.104 1273.9 39 1275 39C1276.1 39 1277 38.104 1277 37V31.464L1282 34.232C1282.32 34.414 1282.66 34.5 1283 34.5C1283.69 34.5 1284.36 34.142 1284.73 33.5C1285.28 32.543 1284.96 31.32 1284 30.768Z" fill="white"/></g>
<g id="moon"><path d="M1327.03 36C1320.94 36 1316.01 31.075 1316.01 25C1316.01 21.342 1317.81 18.11 1320.56 16.11C1320.05 16.045 1319.54 16 1319.02 16C1312.38 16 1307 21.373 1307 28C1307 34.627 1312.38 40 1319.02 40C1322.6 40 1325.8 38.429 1328 35.951C1327.68 35.979 1327.36 36 1327.03 36Z" fill="white"/></g>
</svg>
