<svg width="24" height="24" viewBox="0 0 24 24" fill="none" xmlns="http://www.w3.org/2000/svg">
<defs>
  <style>
    g {
      display: none;
    }
    g:target {
      display: inline;
    }
  </style>
</defs>
<g id="cloud-day">
<path id="cloud-day" fill-rule="evenodd" clip-rule="evenodd" d="M19.833 4.167L24 5.858L22.331 10L23.998 14.142L19.831 15.833L19.421 16.859C18.897 15.683 18.037 14.699 16.945 14.021C18.184 13.111 18.998 11.655 18.998 10C18.998 7.239 16.759 5 13.998 5C11.577 5 9.558 6.722 9.098 9.008C9.08226 9.00754 9.06696 9.00579 9.05168 9.00404C9.03395 9.00202 9.01626 9 8.998 9C7.78 9 6.631 9.331 5.621 9.892L3.998 5.858L8.165 4.167L9.832 0L13.999 1.667L18.166 0L19.833 4.167ZM9 11C11.433 11 13.455 12.739 13.903 15.041C16.197 15.248 18 17.153 18 19.5C18 21.985 15.985 24 13.5 24H4.5C2.015 24 0 21.985 0 19.5C0 17.153 1.804 15.248 4.097 15.041C4.545 12.739 6.567 11 9 11Z" fill="white"/>
</g>
<g id="cloud-mixed">
<path id="cloud-mixed" fill-rule="evenodd" clip-rule="evenodd" d="M22.5006 9C22.5006 11.761 20.2616 14 17.5006 14H5.50061C2.73961 14 0.500613 11.761 0.500613 9C0.500613 6.239 2.73961 4 5.50061 4H6.21261C6.86661 1.693 8.98361 0 11.5006 0C14.0176 0 16.1346 1.693 16.7886 4H17.5006C20.2616 4 22.5006 6.239 22.5006 9ZM5.54161 17.634C6.00761 17.357 6.60161 17.521 6.87061 18C7.13861 18.479 6.97961 19.09 6.51261 19.366L5.44461 20L6.51261 20.634C6.97761 20.91 7.13661 21.521 6.86861 22C6.68861 22.32 6.36161 22.5 6.02561 22.5C5.86161 22.5 5.69361 22.457 5.54061 22.366L4.47261 21.732V23C4.47261 23.553 4.03761 24 3.49961 24C2.96161 24 2.52661 23.553 2.52661 23V21.732L1.45861 22.366C1.30561 22.457 1.13861 22.5 0.973613 22.5C0.637613 22.5 0.310613 22.321 0.130613 22C-0.138387 21.522 0.0216127 20.91 0.486613 20.634L1.55461 20L0.486613 19.366C0.0216127 19.09 -0.137387 18.479 0.130613 18C0.399613 17.523 0.992613 17.358 1.45961 17.634L2.52761 18.268V17C2.52761 16.447 2.96261 16 3.50061 16C4.03861 16 4.47361 16.447 4.47361 17V18.268L5.54161 17.634ZM22.5136 20.634L21.4456 20L22.5136 19.366C22.9786 19.09 23.1386 18.478 22.8696 18C22.6006 17.521 22.0066 17.357 21.5406 17.634L20.4726 18.268V17C20.4726 16.447 20.0376 16 19.4996 16C18.9616 16 18.5266 16.447 18.5266 17V18.268L17.4586 17.634C16.9926 17.358 16.3976 17.523 16.1296 18C15.8616 18.479 16.0206 19.09 16.4856 19.366L17.5536 20L16.4856 20.634C16.0206 20.91 15.8606 21.522 16.1296 22C16.3096 22.321 16.6366 22.5 16.9726 22.5C17.1376 22.5 17.3046 22.457 17.4576 22.366L18.5256 21.732V23C18.5256 23.553 18.9606 24 19.4986 24C20.0366 24 20.4716 23.553 20.4716 23V21.732L21.5396 22.366C21.6926 22.457 21.8606 22.5 22.0246 22.5C22.3606 22.5 22.6876 22.32 22.8676 22C23.1386 21.521 22.9796 20.91 22.5136 20.634ZM11.5006 24C10.0286 24 9.00061 22.801 9.00061 21.085C9.00061 19.368 11.5006 16 11.5006 16C11.5006 16 14.0006 19.368 14.0006 21.085C14.0006 22.801 12.9726 24 11.5006 24Z" fill="white"/>
</g>
<g id="cloud-night">
<path id="cloud-night" fill-rule="evenodd" clip-rule="evenodd" d="M16.02 6C16.02 10.05 19.303 13.333 23.353 13.333C23.571 13.333 23.786 13.319 24 13.3C22.723 14.739 20.94 15.718 18.926 15.947C18.119 14.721 16.917 13.775 15.465 13.322C14.54 11.088 12.503 9.475 10.103 9.091C10.054 8.733 10.02 8.371 10.02 8C10.02 3.582 13.602 0 18.02 0C18.369 0 18.71 0.03 19.047 0.073C17.215 1.406 16.02 3.561 16.02 6ZM9 11C11.433 11 13.455 12.739 13.903 15.041C16.197 15.248 18 17.153 18 19.5C18 21.985 15.985 24 13.5 24H4.5C2.015 24 0 21.985 0 19.5C0 17.153 1.804 15.248 4.097 15.041C4.545 12.739 6.567 11 9 11Z" fill="white"/>
</g>
<g id="cloud-rain">
<path id="cloud-rain" fill-rule="evenodd" clip-rule="evenodd" d="M23 9C23 11.761 20.761 14 18 14H6C3.239 14 1 11.761 1 9C1 6.239 3.239 4 6 4H6.712C7.366 1.693 9.483 0 12 0C14.517 0 16.634 1.693 17.288 4H18C20.761 4 23 6.239 23 9ZM4 24C2.528 24 1.5 22.801 1.5 21.085C1.5 19.368 4 16 4 16C4 16 6.5 19.368 6.5 21.085C6.5 22.801 5.472 24 4 24ZM9.5 21.085C9.5 22.801 10.528 24 12 24C13.472 24 14.5 22.801 14.5 21.085C14.5 19.368 12 16 12 16C12 16 9.5 19.368 9.5 21.085ZM20 24C18.528 24 17.5 22.801 17.5 21.085C17.5 19.368 20 16 20 16C20 16 22.5 19.368 22.5 21.085C22.5 22.801 21.472 24 20 24Z" fill="white"/>
</g>
<g id="cloud-snow">
<path id="cloud-snow" fill-rule="evenodd" clip-rule="evenodd" d="M17.288 4H18C20.761 4 23 6.239 23 9C23 11.761 20.761 14 18 14H6C3.239 14 1 11.761 1 9C1 6.239 3.239 4 6 4H6.712C7.366 1.693 9.483 0 12 0C14.517 0 16.634 1.693 17.288 4ZM10.464 18C10.187 17.521 9.577 17.357 9.098 17.634L8 18.268V17C8 16.447 7.552 16 7 16C6.448 16 6 16.447 6 17V18.268L4.902 17.634C4.422 17.358 3.812 17.523 3.536 18C3.26 18.479 3.424 19.09 3.902 19.366L5 20L3.902 20.634C3.423 20.91 3.26 21.522 3.536 22C3.722 22.321 4.057 22.5 4.403 22.5C4.572 22.5 4.744 22.457 4.902 22.366L6 21.732V23C6 23.553 6.448 24 7 24C7.552 24 8 23.553 8 23V21.732L9.098 22.366C9.256 22.457 9.428 22.5 9.597 22.5C9.943 22.5 10.279 22.32 10.464 22C10.74 21.521 10.576 20.91 10.098 20.634L9 20L10.098 19.366C10.577 19.09 10.74 18.479 10.464 18ZM20.464 18C20.187 17.521 19.577 17.357 19.098 17.634L18 18.268V17C18 16.447 17.552 16 17 16C16.448 16 16 16.447 16 17V18.268L14.902 17.634C14.422 17.358 13.812 17.523 13.536 18C13.26 18.479 13.424 19.09 13.902 19.366L15 20L13.902 20.634C13.423 20.91 13.26 21.522 13.536 22C13.722 22.321 14.057 22.5 14.403 22.5C14.572 22.5 14.744 22.457 14.902 22.366L16 21.732V23C16 23.553 16.448 24 17 24C17.552 24 18 23.553 18 23V21.732L19.098 22.366C19.256 22.457 19.428 22.5 19.597 22.5C19.943 22.5 20.279 22.32 20.464 22C20.74 21.521 20.576 20.91 20.098 20.634L19 20L20.098 19.366C20.577 19.09 20.74 18.479 20.464 18Z" fill="white"/>
</g>
<g id="cloudy">
<path id="cloudy" fill-rule="evenodd" clip-rule="evenodd" d="M17.843 9.618C16.968 9.227 16.007 9 15 9C12.258 9 9.836 10.612 8.698 13H4.5C2.015 13 0 10.985 0 8.5C0 6.153 1.804 4.248 4.097 4.041C4.545 1.739 6.567 0 9 0C11.433 0 13.455 1.739 13.903 4.041C16.197 4.248 18 6.153 18 8.5C18 8.888 17.936 9.258 17.843 9.618ZM15 11C17.433 11 19.455 12.739 19.903 15.041C22.197 15.248 24 17.153 24 19.5C24 21.985 21.985 24 19.5 24H10.5C8.015 24 6 21.985 6 19.5C6 17.153 7.804 15.248 10.097 15.041C10.545 12.739 12.567 11 15 11Z" fill="white"/>
</g>
<g id="fog">
<path id="fog" fill-rule="evenodd" clip-rule="evenodd" d="M23 11C23 12.131 22.611 13.162 21.978 14H2.023C1.39 13.162 1 12.131 1 11C1 8.239 3.239 6 6 6H6.712C7.366 3.693 9.483 2 12 2C14.517 2 16.634 3.693 17.288 6H18C20.761 6 23 8.239 23 11ZM23 17C23 16.45 22.55 16 22 16H2C1.45 16 1 16.45 1 17C1 17.55 1.45 18 2 18H22C22.55 18 23 17.55 23 17ZM23 21C23 20.45 22.55 20 22 20H2C1.45 20 1 20.45 1 21C1 21.55 1.45 22 2 22H22C22.55 22 23 21.55 23 21Z" fill="white"/>
</g>
<g id="hale">
<path id="hale" fill-rule="evenodd" clip-rule="evenodd" d="M17.288 4H18C20.761 4 23 6.239 23 9C23 11.761 20.761 14 18 14H6C3.239 14 1 11.761 1 9C1 6.239 3.239 4 6 4H6.712C7.366 1.693 9.483 0 12 0C14.517 0 16.634 1.693 17.288 4ZM4 17.5C4 16.672 4.672 16 5.5 16C6.328 16 7 16.672 7 17.5C7 18.328 6.328 19 5.5 19C4.672 19 4 18.328 4 17.5ZM8.5 21C7.672 21 7 21.672 7 22.5C7 23.328 7.672 24 8.5 24C9.328 24 10 23.328 10 22.5C10 21.672 9.328 21 8.5 21ZM14 22.5C14 21.672 14.672 21 15.5 21C16.328 21 17 21.672 17 22.5C17 23.328 16.328 24 15.5 24C14.672 24 14 23.328 14 22.5ZM12 16C11.172 16 10.5 16.672 10.5 17.5C10.5 18.328 11.172 19 12 19C12.828 19 13.5 18.328 13.5 17.5C13.5 16.672 12.828 16 12 16ZM17 17.5C17 16.672 17.672 16 18.5 16C19.328 16 20 16.672 20 17.5C20 18.328 19.328 19 18.5 19C17.672 19 17 18.328 17 17.5Z" fill="white"/>
</g>
<g id="hurricane">
<path id="hurricane" fill-rule="evenodd" clip-rule="evenodd" d="M15.386 0H22.5C23.329 0 24 0.672 24 1.5C24 2.328 23.329 3 22.5 3H17.388C20.447 4.835 22.5 8.174 22.5 12C22.5 13.165 22.303 14.281 21.953 15.328C20.407 20.694 15.524 24 8.614 24H1.5C0.671 24 0 23.328 0 22.5C0 21.672 0.671 21 1.5 21H6.612C3.553 19.165 1.5 15.826 1.5 12C1.5 10.835 1.697 9.719 2.047 8.672C3.593 3.306 8.476 0 15.386 0ZM8 12C8 14.206 9.794 16 12 16C14.206 16 16 14.206 16 12C16 9.794 14.206 8 12 8C9.794 8 8 9.794 8 12Z" fill="white"/>
</g>
<g id="lightning">
<path id="lightning" d="M21 9H14.818L18 2H8L3 13H8.769L6 22L21 9Z" fill="white"/>
</g>
<g id="mixed-precipitation">
<path id="mixed-precipitation" fill-rule="evenodd" clip-rule="evenodd" d="M8 6.085C8 4.368 5.5 1 5.5 1C5.5 1 3 4.368 3 6.085C3 7.801 4.028 9 5.5 9C6.972 9 8 7.801 8 6.085ZM18.5 1C18.5 1 16 4.368 16 6.085C16 7.801 17.028 9 18.5 9C19.972 9 21 7.801 21 6.085C21 4.368 18.5 1 18.5 1ZM15.684 11.701C16.424 11.286 17.367 11.533 17.793 12.25C18.219 12.968 17.966 13.885 17.226 14.299L15.085 15.5L17.226 16.701C17.964 17.115 18.218 18.032 17.791 18.75C17.505 19.231 16.987 19.5 16.453 19.5C16.192 19.5 15.926 19.436 15.683 19.299L13.542 18.098V20.5C13.542 21.328 12.851 22 11.998 22C11.145 22 10.454 21.328 10.454 20.5V18.098L8.313 19.299C8.07 19.436 7.805 19.5 7.543 19.5C7.01 19.5 6.491 19.231 6.205 18.75C5.779 18.032 6.032 17.115 6.77 16.701L8.911 15.5L6.77 14.299C6.032 13.885 5.778 12.968 6.205 12.25C6.632 11.533 7.575 11.286 8.314 11.701L10.455 12.902V10.5C10.455 9.672 11.146 9 11.999 9C12.852 9 13.543 9.672 13.543 10.5V12.902L15.684 11.701Z" fill="white"/>
</g>
<g id="moon-first-quarter">
<path id="moon-first-quarter" fill-rule="evenodd" clip-rule="evenodd" d="M1 12C1 5.95 5.95 1 12 1C18.05 1 23 5.95 23 12C23 18.05 18.05 23 12 23C5.95 23 1 18.05 1 12ZM12 4C7.589 4 4 7.589 4 12C4 16.411 7.589 20 12 20V4Z" fill="white"/>
</g>
<g id="moon-full">
<path id="moon-full" fill-rule="evenodd" clip-rule="evenodd" d="M1 12C1 5.95 5.95 1 12 1C18.05 1 23 5.95 23 12C23 18.05 18.05 23 12 23C5.95 23 1 18.05 1 12ZM20 12C20 7.589 16.411 4 12 4C7.589 4 4 7.589 4 12C4 16.411 7.589 20 12 20C16.411 20 20 16.411 20 12Z" fill="white"/>
</g>
<g id="moon-new">
<path id="moon-new" d="M12 1C5.959 1 1 5.96 1 11.999C1 18.041 5.959 23 12 23C18.044 23 23 18.042 23 11.999C23 5.96 18.044 1 12 1Z" fill="white"/>
</g>
<g id="moon-third-quarter">
<path id="moon-third-quarter" fill-rule="evenodd" clip-rule="evenodd" d="M23 12C23 18.05 18.05 23 12 23C5.95 23 1 18.05 1 12C1 5.95 5.95 1 12 1C18.05 1 23 5.95 23 12ZM12 20C16.411 20 20 16.411 20 12C20 7.589 16.411 4 12 4V20Z" fill="white"/>
</g>
<g id="moon-waning-crescent">
<path id="moon-waning-crescent" fill-rule="evenodd" clip-rule="evenodd" d="M23 12C23 18.05 18.05 23 12 23C5.95 23 1 18.05 1 12C1 5.95 5.95 1 12 1C18.05 1 23 5.95 23 12ZM19.959 12.817C19.983 12.547 20 12.276 20 12C20 11.724 19.983 11.453 19.959 11.183C19.558 7.244 16.284 4.15 12.273 4.014C14.546 5.935 16.001 8.789 16.001 12C16.001 15.211 14.546 18.065 12.273 19.986C16.284 19.85 19.558 16.756 19.959 12.817Z" fill="white"/>
</g>
<g id="moon-waning-gibbous">
<path id="moon-waning-gibbous" fill-rule="evenodd" clip-rule="evenodd" d="M23 12C23 18.05 18.05 23 12 23C5.95 23 1 18.05 1 12C1 5.95 5.95 1 12 1C18.05 1 23 5.95 23 12ZM12.011 20C16.417 19.994 20 16.407 20 12C20 7.593 16.417 4.006 12.011 4C9.578 5.824 8 8.725 8 12C8 15.275 9.578 18.176 12.011 20Z" fill="white"/>
</g>
<g id="moon-waxing-crescent">
<path id="moon-waxing-crescent" fill-rule="evenodd" clip-rule="evenodd" d="M1 12C1 5.95 5.95 1 12 1C18.05 1 23 5.95 23 12C23 18.05 18.05 23 12 23C5.95 23 1 18.05 1 12ZM4.041 11.183C4.017 11.453 4 11.724 4 12C4 12.276 4.017 12.547 4.041 12.817C4.442 16.756 7.716 19.85 11.727 19.986C9.454 18.065 7.999 15.211 7.999 12C7.999 8.789 9.454 5.935 11.727 4.014C7.716 4.15 4.442 7.244 4.041 11.183Z" fill="white"/>
</g>
<g id="moon-waxing-gibbous">
<path id="moon-waxing-gibbous" fill-rule="evenodd" clip-rule="evenodd" d="M1 12C1 5.95 5.95 1 12 1C18.05 1 23 5.95 23 12C23 18.05 18.05 23 12 23C5.95 23 1 18.05 1 12ZM11.989 4C7.583 4.006 4 7.593 4 12C4 16.407 7.583 19.994 11.989 20C14.422 18.176 16 15.275 16 12C16 8.725 14.422 5.824 11.989 4Z" fill="white"/>
</g>
<g id="moon">
<path id="moon" d="M21.028 20C14.944 20 10.013 15.075 10.013 9C10.013 5.342 11.809 2.11 14.56 0.11C14.054 0.045 13.541 0 13.017 0C6.38 0 1 5.373 1 12C1 18.627 6.38 24 13.017 24C16.595 24 19.799 22.429 22 19.951C21.679 19.979 21.356 20 21.028 20Z" fill="white"/>
</g>
<g id="partly-cloudy">
<path id="partly-cloudy" d="M18.991 9.179C18.992 9.119 19 9.061 19 9C19 5.134 15.866 2 12 2C8.134 2 5 5.134 5 9C5 9.06 5.008 9.119 5.009 9.179C2.139 9.854 0 12.424 0 15.5C0 19.09 2.91 22 6.5 22H17.5C21.09 22 24 19.09 24 15.5C24 12.424 21.861 9.854 18.991 9.179Z" fill="white"/>
</g>
<g id="plus">
<path id="Union" d="M13.9985 3.99902C13.9985 2.89445 13.1031 1.99902 11.9985 1.99902C10.894 1.99902 9.99854 2.89445 9.99854 3.99902L9.99853 9.99902H3.99854C2.89397 9.99902 1.99854 10.8945 1.99854 11.999C1.99854 13.1036 2.89397 13.999 3.99854 13.999H9.99853L9.99853 19.999C9.99853 21.1036 10.894 21.999 11.9985 21.999C13.1031 21.999 13.9985 21.1036 13.9985 19.999V13.999H19.9985C21.1031 13.999 21.9985 13.1036 21.9985 11.999C21.9985 10.8945 21.1031 9.99902 19.9985 9.99902H13.9985V3.99902Z" fill="white"/>
</g>
<g id="rain">
<path id="rain" fill-rule="evenodd" clip-rule="evenodd" d="M3.5 2C3.5 2 6 5.368 6 7.085C6 8.801 4.972 10 3.5 10C2.028 10 1 8.801 1 7.085C1 5.368 3.5 2 3.5 2ZM12 2C12 2 9.5 5.368 9.5 7.085C9.5 8.801 10.528 10 12 10C13.472 10 14.5 8.801 14.5 7.085C14.5 5.368 12 2 12 2ZM20.5 2C20.5 2 18 5.368 18 7.085C18 8.801 19.028 10 20.5 10C21.972 10 23 8.801 23 7.085C23 5.368 20.5 2 20.5 2ZM3 18.356C3 20.501 4.439 22 6.5 22C8.561 22 10 20.501 10 18.356C10 16.21 6.5 12 6.5 12C6.5 12 3 16.21 3 18.356ZM17.5 22C15.439 22 14 20.501 14 18.356C14 16.21 17.5 12 17.5 12C17.5 12 21 16.21 21 18.356C21 20.501 19.561 22 17.5 22Z" fill="white"/>
</g>
<g id="snow">
<path id="snow" fill-rule="evenodd" clip-rule="evenodd" d="M6.47461 6.732L7.54261 7.366C7.69561 7.457 7.86361 7.5 8.02761 7.5C8.36361 7.5 8.69061 7.32 8.87061 7C9.13861 6.521 8.97961 5.91 8.51461 5.634L7.44661 5L8.51461 4.366C8.97961 4.09 9.13961 3.478 8.87061 3C8.60161 2.521 8.00761 2.356 7.54161 2.634L6.47361 3.268V2C6.47361 1.447 6.03861 1 5.50061 1C4.96261 1 4.52761 1.447 4.52761 2V3.268L3.45961 2.634C2.99261 2.357 2.39961 2.523 2.13061 3C1.86261 3.479 2.02161 4.09 2.48661 4.366L3.55461 5L2.48661 5.634C2.02161 5.91 1.86161 6.522 2.13061 7C2.31061 7.321 2.63761 7.5 2.97361 7.5C3.13861 7.5 3.30561 7.457 3.45861 7.366L4.52661 6.732V8C4.52661 8.553 4.96161 9 5.49961 9C6.03761 9 6.47461 8.553 6.47461 8V6.732ZM17.2946 13.25C16.8686 12.533 15.9256 12.286 15.1856 12.701L13.0446 13.902V11.5C13.0446 10.672 12.3536 10 11.5006 10C10.6476 10 9.95661 10.672 9.95661 11.5V13.902L7.81561 12.701C7.07661 12.286 6.13361 12.533 5.70661 13.25C5.27961 13.968 5.53361 14.885 6.27161 15.299L8.41261 16.5L6.27161 17.701C5.53361 18.115 5.28061 19.032 5.70661 19.75C5.99261 20.231 6.51161 20.5 7.04461 20.5C7.30661 20.5 7.57161 20.436 7.81461 20.299L9.95561 19.098V21.5C9.95561 22.328 10.6466 23 11.4996 23C12.3526 23 13.0436 22.328 13.0436 21.5V19.098L15.1846 20.299C15.4276 20.436 15.6936 20.5 15.9546 20.5C16.4886 20.5 17.0066 20.231 17.2926 19.75C17.7196 19.032 17.4656 18.115 16.7276 17.701L14.5866 16.5L16.7276 15.299C17.4676 14.885 17.7206 13.968 17.2946 13.25ZM19.4466 5L20.5146 5.634C20.9806 5.91 21.1396 6.521 20.8686 7C20.6886 7.32 20.3616 7.5 20.0256 7.5C19.8616 7.5 19.6936 7.457 19.5406 7.366L18.4726 6.732V8C18.4726 8.553 18.0376 9 17.4996 9C16.9616 9 16.5266 8.553 16.5266 8V6.732L15.4586 7.366C15.3056 7.457 15.1386 7.5 14.9736 7.5C14.6376 7.5 14.3106 7.321 14.1306 7C13.8616 6.522 14.0216 5.91 14.4866 5.634L15.5546 5L14.4866 4.366C14.0216 4.09 13.8626 3.479 14.1306 3C14.3996 2.523 14.9926 2.357 15.4596 2.634L16.5276 3.268V2C16.5276 1.447 16.9626 1 17.5006 1C18.0386 1 18.4736 1.447 18.4736 2V3.268L19.5416 2.634C20.0076 2.356 20.6016 2.521 20.8706 3C21.1396 3.478 20.9796 4.09 20.5146 4.366L19.4466 5Z" fill="white"/>
</g>
<g id="snowflake">
<path id="snowflake" d="M21.0003 14.768L16.0013 12L21.0003 9.232C21.9573 8.679 22.2843 7.457 21.7323 6.5C21.1803 5.544 19.9573 5.216 19.0003 5.768L14.0003 8.536V3C14.0003 1.896 13.1043 1 12.0003 1C10.8963 1 10.0003 1.896 10.0003 3V8.536L5.00026 5.768C4.04326 5.216 2.82026 5.544 2.26826 6.5C1.71626 7.457 2.04326 8.68 3.00026 9.232L7.99926 12L3.00026 14.768C2.04326 15.321 1.71626 16.543 2.26826 17.5C2.63826 18.142 3.31026 18.5 4.00226 18.5C4.34126 18.5 4.68526 18.414 5.00026 18.232L10.0003 15.464V21C10.0003 22.104 10.8963 23 12.0003 23C13.1043 23 14.0003 22.104 14.0003 21V15.464L19.0003 18.232C19.3153 18.414 19.6593 18.5 19.9983 18.5C20.6893 18.5 21.3623 18.142 21.7323 17.5C22.2843 16.543 21.9573 15.32 21.0003 14.768Z" fill="white"/>
</g>
<g id="storm">
<path id="storm" fill-rule="evenodd" clip-rule="evenodd" d="M4.083 6.042C4.543 3.185 7.013 1 10 1C12.851 1 15.21 2.999 15.82 5.664L10.336 13.891L9.596 15H4.5C2.015 15 0 12.985 0 10.5C0 8.157 1.796 6.255 4.083 6.042ZM16.667 8H24L19.692 14H24L13.889 23L16 15H12L16.667 8Z" fill="white"/>
</g>
<g id="sun">
<path id="sun" fill-rule="evenodd" clip-rule="evenodd" d="M19 5L24 7.029L22 12L24 16.971L19 19L17 24L12 22L7 24L5 19L0 16.971L2 12L0 7.029L5 5L7 0L12 2L17 0L19 5ZM6 12C6 15.314 8.686 18 12 18C15.314 18 18 15.314 18 12C18 8.686 15.314 6 12 6C8.686 6 6 8.686 6 12Z" fill="white"/>
</g>
<g id="sunrise">
<path id="sunrise" fill-rule="evenodd" clip-rule="evenodd" d="M10 7H7.414C6.523 7 6.077 5.923 6.707 5.293L12 0L17.293 5.293C17.923 5.923 17.477 7 16.586 7H14V9C14 10.104 13.104 11 12 11C10.896 11 10 10.104 10 9V7ZM17 12L19 17L24 19.029L22 24H18C18 20.686 15.314 18 12 18C8.686 18 6 20.686 6 24H2L0 19.029L5 17L7 12L12 14L17 12Z" fill="white"/>
</g>
<g id="sunset">
<path id="sunset" fill-rule="evenodd" clip-rule="evenodd" d="M17.293 5.707L12 11L6.707 5.707C6.077 5.077 6.523 4 7.414 4H10V2C10 0.896 10.896 0 12 0C13.105 0 14 0.896 14 2V4H16.586C17.477 4 17.923 5.077 17.293 5.707ZM17 12L19 17L24 19.029L22 24H18C18 20.686 15.314 18 12 18C8.686 18 6 20.686 6 24H2L0 19.029L5 17L7 12L12 14L17 12Z" fill="white"/>
</g>
<g id="tornado">
<path id="tornado" fill-rule="evenodd" clip-rule="evenodd" d="M21.583 1.528C20.927 2.236 20.393 3.062 20.101 3.982L20.0992 3.988C20.0981 3.992 20.097 3.996 20.095 4H0.562C0.2 2.71 0 1.37 0 0H23L21.583 1.528ZM19 24V23C19 21.099 18.185 19.355 16.821 18H23.711C23.386 19.077 22.79 20.104 21.921 20.994L19 24ZM19.775 6H1.268C1.898 7.437 2.752 8.781 3.797 10H21.021C20.181 8.785 19.768 7.397 19.775 6ZM5.825 12H22.679C23.547 13.218 23.991 14.607 24 16H13.559L11.358 15.188C9.273 14.419 7.412 13.328 5.825 12Z" fill="white"/>
</g>
<g id="wind">
<path id="wind" fill-rule="evenodd" clip-rule="evenodd" d="M1 9H10C12.209 9 14 7.209 14 5C14 2.791 12.209 1 10 1C7.791 1 6 2.791 6 5C6 5.732 6.211 6.41 6.555 7H1C0.45 7 0 7.45 0 8C0 8.55 0.45 9 1 9ZM18 15H1C0.45 15 0 15.45 0 16C0 16.55 0.45 17 1 17H14.555C14.211 17.59 14 18.268 14 19C14 21.209 15.791 23 18 23C20.209 23 22 21.209 22 19C22 16.791 20.209 15 18 15ZM16 9C16 6.791 17.791 5 20 5C22.209 5 24 6.791 24 9C24 11.209 22.209 13 20 13H1C0.45 13 0 12.55 0 12C0 11.45 0.45 11 1 11H16.555C16.211 10.41 16 9.732 16 9Z" fill="white"/>
</g>
</svg>
